<?xml version="1.0" encoding="UTF-8"?>
<!DOCTYPE svg PUBLIC "-//W3C//DTD SVG 1.1//EN" "http://www.w3.org/Graphics/SVG/1.1/DTD/svg11.dtd">
<!-- Creator: CorelDRAW 2020 (64 Bit) -->
<svg xmlns="http://www.w3.org/2000/svg" xml:space="preserve" width="3058px" height="1716px" version="1.1" style="shape-rendering:geometricPrecision; text-rendering:geometricPrecision; image-rendering:optimizeQuality; fill-rule:evenodd; clip-rule:evenodd"
viewBox="0 0 3327.45 1867.68"
 xmlns:xlink="http://www.w3.org/1999/xlink"
 xmlns:xodm="http://www.corel.com/coreldraw/odm/2003"
 baseprofile="tiny"
 viewbox="0 0 1511 775">
 <defs>
  <style type="text/css">
   <![CDATA[
    .str2 {stroke:#FF6600;stroke-width:18.14;stroke-miterlimit:22.9256;stroke-opacity:0.400000}
    .str3 {stroke:#FF6600;stroke-width:108.83;stroke-miterlimit:22.9256;stroke-opacity:0.400000}
    .str6 {stroke:orangered;stroke-width:9.07;stroke-miterlimit:22.9256;stroke-opacity:0.800000}
    .str5 {stroke:orangered;stroke-width:36.28;stroke-miterlimit:22.9256}
    .str1 {stroke:aqua;stroke-width:9.07;stroke-miterlimit:22.9256}
    .str7 {stroke:orangered;stroke-width:9.07;stroke-miterlimit:22.9256}
    .str0 {stroke:aqua;stroke-width:2.57;stroke-miterlimit:22.9256}
    .str8 {stroke:#FF6600;stroke-width:2.57;stroke-miterlimit:22.9256}
    .str4 {stroke:aqua;stroke-width:18.14;stroke-linecap:round;stroke-linejoin:round;stroke-miterlimit:22.9256}
    .fil4 {fill:none}
    .fil2 {fill:none}
    .fil5 {fill:none}
    .fil0 {fill:none}
    .fil6 {fill:#FF6600}
    .fil3 {fill:aqua;fill-rule:nonzero}
    .fil1 {fill:#FF6600;fill-opacity:0.400000}
   ]]>
  </style>
     <mask id="id0">
  <linearGradient id="id1" gradientUnits="userSpaceOnUse" x1="1196.8" y1="1134.13" x2="2461.54" y2="609.73">
   <stop offset="0" style="stop-opacity:1; stop-color:white"/>
   <stop offset="0.541176" style="stop-opacity:0.501961; stop-color:white"/>
   <stop offset="1" style="stop-opacity:0; stop-color:white"/>
  </linearGradient>
      <rect style="fill:url(#id1)" x="1161.93" y="237.46" width="1571.39" height="1003.69"/>
     </mask>
     <mask id="id2">
  <linearGradient id="id3" gradientUnits="userSpaceOnUse" x1="1196.8" y1="1134.13" x2="2461.54" y2="609.73">
   <stop offset="0" style="stop-opacity:1; stop-color:white"/>
   <stop offset="0.541176" style="stop-opacity:0.501961; stop-color:white"/>
   <stop offset="1" style="stop-opacity:0; stop-color:white"/>
  </linearGradient>
      <rect style="fill:url(#id3)" x="1107.01" y="1040.32" width="98.15" height="114.12"/>
     </mask>
 </defs>
 <g id="Camada_x0020_1">
  <metadata id="CorelCorpID_0Corel-Layer"/>
  <g id="_2509306871792">
   <path class="fil0 str0" d="M1112.93 1224.37c-0.15,-0.37 -0.29,-0.71 -0.43,-1.02l-0.51 0.15c-0.08,0.02 -0.15,0.06 -0.21,0.12l-2.1 0.47 -1.1 0.08 -2.3 -1.03c-0.22,-0.1 -0.47,-0.04 -0.63,0.13 -0.41,0.44 -0.76,0.83 -1.14,1.29l-0.39 0.21 -0.64 -0.4 -0.14 -0.07 -1.76 -0.57c-0.69,-0.44 -1.31,-0.79 -2.04,-1.19l-0.65 -1 -0.49 -1.04 -0.32 -0.82 -0.13 -0.62c-0.04,-0.14 -0.13,-0.26 -0.25,-0.34 -0.38,-0.24 -0.54,-0.32 -0.95,-0.5l-0.68 -0.82 -0.13 -0.12 -0.39 -0.25c-0.22,-0.14 -0.49,-0.11 -0.66,0.05l-0.14 0.12 -0.14 0.05c-0.04,-0.05 -0.1,-0.1 -0.15,-0.13l-0.38 -0.24 -0.16 -0.07 -1.31 -0.32 -0.57 -0.53 -0.12 -0.32c-0.03,-0.06 -0.06,-0.12 -0.11,-0.16l-0.22 -0.27 0.04 -0.39 0.17 -0.17 0.5 -0.8c0.05,-0.07 0.08,-0.15 0.09,-0.24l0.07 -0.76 0.54 -1.35 0.04 -0.15 0.14 -1.46c0.01,-0.07 0,-0.14 -0.02,-0.2l-0.29 -1.27c-0.03,-0.15 -0.12,-0.27 -0.24,-0.34l-0.13 -0.09c-0.02,-0.16 -0.12,-0.3 -0.26,-0.39 -0.55,-0.34 -0.98,-0.51 -1.58,-0.78l-0.69 -0.63 -0.26 -0.31c-0.13,-0.74 -0.25,-1.44 -0.36,-2.19 -0.08,-1.14 -0.16,-1.68 -0.37,-2.82l-0.05 -0.16 -0.36 -0.67c-0.05,-0.1 -0.13,-0.18 -0.22,-0.23l-0.73 -0.45 -0.71 -0.66c-0.27,-0.33 -0.54,-0.55 -0.86,-0.85 -0.13,-0.55 -0.27,-1.05 -0.43,-1.6l-0.07 -0.15 -0.53 -0.87c-0.4,-0.53 -0.63,-0.73 -1.13,-1.18l-0.23 -1.04 0.13 -1.3 0.22 -0.49 1.26 -2.17c0.03,-0.06 0.05,-0.12 0.06,-0.18l0.28 -1.02 0.1 -0.08 0.11 -0.13 0.21 -0.32 0.32 -0.27 0.23 -0.09 0.29 0.03c0.07,0.01 0.14,0 0.2,-0.01l0.54 -0.13 1.74 0.18 0.9 0.27 1.1 0.69c0.72,0.6 1.4,1.22 2.19,1.72 0.08,0.05 0.18,0.08 0.27,0.08l0.29 0.02 1.06 -0.1 0.13 -0.03c2.5,-0.84 4.44,-1.5 6.83,-2.51l0.15 -0.09 1.13 -0.93c0.07,-0.06 0.12,-0.13 0.16,-0.2l0.54 -1.22 0.05 -0.17 0.04 -0.42c0.01,-0.09 -0.01,-0.18 -0.04,-0.27l-0.16 -0.41 -0.09 -0.15c-0.31,-0.39 -0.63,-0.64 -0.99,-0.98l-0.11 -0.13 -0.12 -0.32 -0.12 -0.52 0.03 -0.25 0.5 -1.13 0.36 -1.31c0.03,-0.1 0.03,-0.19 0.01,-0.28l-0.7 -2.8 0.12 -0.2c0.05,-0.08 0.08,-0.16 0.09,-0.24l0.02 -0.2 0.28 -0.23c0.06,-0.05 0.1,-0.1 0.14,-0.17l0.47 -0.91 0.22 -0.19 0.48 -0.58c0.04,-0.05 0.07,-0.11 0.09,-0.17l0.8 -1.78 0.04 -0.11c0.67,-3.23 0.92,-4.95 1.24,-8.18 0,-0.07 0,-0.14 -0.02,-0.2l-0.14 -0.6 -0.12 -0.84c-0.01,-0.06 -0.03,-0.12 -0.06,-0.17l-1.42 -2.68 -0.25 -0.32 -0.14 -0.12 -0.36 -0.22 -0.51 -0.42 -1.59 -2.17 -0.1 -0.25 0.12 -1.12c0.01,-0.17 -0.04,-0.32 -0.15,-0.43l-0.17 -0.21c-0.05,-0.06 -0.1,-0.1 -0.17,-0.13l-0.98 -0.51 -0.34 -0.22 -0.53 -0.44 -0.27 -0.32c-0.72,-2.58 -0.85,-3.4 -1.96,-5.65l-0.11 -0.29 0.01 -0.17 0.14 -0.21 0.16 -0.13 0.11 -0.13c0.36,-0.57 0.54,-1.02 0.82,-1.65l0.43 -0.69 0.16 -0.13c0.24,-0.19 0.27,-0.54 0.08,-0.77l-0.38 -0.46c-0.09,-0.12 -0.23,-0.18 -0.37,-0.2l-0.7 -0.07 -0.54 -0.33 -0.05 -0.15 0.03 -0.37 0.41 -0.65c0.59,-0.71 0.7,-0.86 1.07,-1.7l0.05 -0.16 0.23 -0.12 0.09 0.12c0.07,0.08 0.16,0.14 0.25,0.17l3.59 1.18 0.47 0.39 0.53 0.64 0.13 0.12c0.84,0.52 1.53,0.94 2.4,1.42l0.25 1.06c0.06,0.27 0.31,0.45 0.58,0.42l1 -0.1 2.72 0.47 0.63 0.4 1.08 1.31 0.13 0.11 1.17 0.74c1.04,0.82 1.88,1.52 2.97,2.21l0.13 0.06c1.4,0.43 1.74,0.49 3.19,0.35 1.58,0.87 2.57,1.19 4.33,1.85l1.51 0.96 0.93 0.69 1.78 2.17 0.47 1.24 0.09 0.15 0.57 0.69c0.09,0.12 0.23,0.18 0.37,0.2l0.41 0.04c0.07,0.01 0.14,0 0.2,-0.02l0.54 -0.12 0.26 0.03 1.34 0.53 1.09 0.49c0.96,1.07 1.75,2.1 2.85,3 0.06,0.05 0.13,0.09 0.2,0.1l0.78 0.28c0.13,0.05 0.26,0.05 0.38,0l0.82 -0.31 0.6 -0.09 0.51 0.32 0.43 0.7 0.1 0.7 -0.16 3.73 0.01 0.15 0.15 0.65c0.03,0.12 0.09,0.22 0.18,0.3l0.59 0.48c0.06,0.05 0.13,0.08 0.2,0.1l1.45 0.52 0.98 1.19 0.29 0.77 0.14 0.61 0.05 0.13 0.35 0.67c0.07,0.14 0.2,0.23 0.33,0.27 0.89,0.32 1.43,0.43 2.38,0.65l0.45 0.37 0.9 1.1c0.05,0.06 0.12,0.11 0.18,0.14l1.61 0.8c0.07,0.03 0.14,0.05 0.21,0.05l0.61 0.07c0.18,0.01 0.35,-0.06 0.46,-0.18l0.58 -0.63 0.51 -0.08 0.32 0.15 1.21 1.69 0.5 0.83 0.27 0.71 -0.06 0.67c-0.27,1.08 -0.36,1.46 -0.47,2.53 -0.01,0.16 0.04,0.32 0.15,0.43l0.35 0.43c0.1,0.12 0.23,0.18 0.37,0.2l1.47 0.14 0.16 0 2.24 -0.33 0.08 0.08 0.86 0.64 0.01 0.02c0.11,-0.05 0.26,-0.12 0.44,-0.19 0.07,-0.03 0.28,-0.12 0.57,-0.24l-0.04 -0.11c-0.04,-0.1 -0.1,-0.2 -0.2,-0.27l-0.93 -0.69 -0.14 -0.16c-0.11,-0.16 -0.31,-0.24 -0.51,-0.21l-2.5 0.37 -1.18 -0.12 -0.08 -0.11 0.07 -0.78c0.24,-0.96 0.35,-1.38 0.44,-2.32 0.01,-0.08 0,-0.17 -0.03,-0.25l-0.38 -0.96c-0.6,-1 -1.18,-1.8 -1.86,-2.76 -0.06,-0.07 -0.13,-0.14 -0.23,-0.18l-0.6 -0.27c-0.09,-0.04 -0.2,-0.06 -0.31,-0.04l-0.85 0.12c-0.12,0.02 -0.24,0.08 -0.33,0.17l-0.52 0.58 -0.26 -0.03 -1.42 -0.7 -0.94 -1.13 -0.59 -0.48c-0.06,-0.06 -0.14,-0.09 -0.22,-0.11l-1.63 -0.37 -0.58 -0.21 -0.22 -0.42c-0.14,-0.63 -0.25,-0.91 -0.49,-1.53l-0.09 -0.15 -1.11 -1.36c-0.06,-0.08 -0.15,-0.15 -0.25,-0.19l-1.55 -0.55 -0.37 -0.31 -0.09 -0.39 0.16 -3.81 -0.12 -0.85c-0.01,-0.07 -0.04,-0.14 -0.08,-0.21l-0.55 -0.9c-0.04,-0.07 -0.1,-0.14 -0.17,-0.18l-0.8 -0.5c-0.1,-0.07 -0.23,-0.1 -0.37,-0.08l-0.83 0.12 -0.14 0.03 -0.69 0.27 -0.53 -0.2 -0.49 -0.4 -2.24 -2.5c-0.05,-0.06 -0.12,-0.11 -0.19,-0.14 -0.91,-0.41 -1.72,-0.75 -2.64,-1.11 -0.05,-0.02 -0.11,-0.04 -0.17,-0.05l-0.42 -0.04 -0.18 0.01 -0.56 0.13 -0.1 -0.01 -0.37 -0.45 -0.47 -1.23 -0.09 -0.15 -1.86 -2.27 -0.12 -0.12c-0.81,-0.61 -1.83,-1.37 -2.71,-1.81l-3.02 -1.14 -1.32 -0.73c-0.1,-0.07 -0.23,-0.1 -0.36,-0.09l-1.02 0.1 -0.93 -0.09 -0.91 -0.27 -0.71 -0.45c-1.2,-0.95 -2.03,-1.62 -3.29,-2.42l-1.06 -1.29c-0.04,-0.05 -0.09,-0.1 -0.15,-0.13l-0.79 -0.51c-0.06,-0.03 -0.13,-0.06 -0.2,-0.07l-2.87 -0.49c-0.06,-0.02 -0.12,-0.02 -0.19,-0.02l-0.58 0.06 -0.19 -0.82c-0.04,-0.15 -0.13,-0.28 -0.27,-0.36l-1.38 -0.76 -1.11 -0.71 -0.59 -0.69 -0.58 -0.49c-0.06,-0.04 -0.11,-0.07 -0.18,-0.09l-3.54 -1.16 -0.22 -0.28c-0.15,-0.25 -0.47,-0.33 -0.73,-0.2 -0.41,0.22 -0.64,0.32 -0.99,0.61 -0.11,0.09 -0.18,0.22 -0.2,0.37l-0.01 0.12 -0.21 0.48 -0.22 0.34c-0.42,0.52 -0.65,0.86 -1,1.41 -0.05,0.07 -0.07,0.15 -0.08,0.24l-0.07 0.63c0,0.08 0.01,0.17 0.04,0.25l0.17 0.44c0.04,0.11 0.11,0.2 0.22,0.27l0.79 0.5c0.07,0.04 0.15,0.07 0.24,0.08l0.48 0.05c-0.46,0.72 -0.61,1.07 -0.97,1.88l-0.19 0.3 -0.14 0.12c-0.05,0.03 -0.1,0.08 -0.13,0.14l-0.24 0.38c-0.05,0.08 -0.09,0.16 -0.1,0.26l-0.04 0.42c0,0.08 0.01,0.16 0.04,0.24 0.29,0.78 0.67,1.47 1.04,2.22l1.08 3.87c0.02,0.07 0.05,0.13 0.1,0.19l0.46 0.54c0.79,0.65 1.02,0.77 1.95,1.25l-0.1 1.01c-0.01,0.09 0,0.17 0.03,0.25l0.16 0.41c0.02,0.05 0.04,0.11 0.08,0.16l1.68 2.28 0.09 0.1c0.36,0.29 0.58,0.48 0.97,0.72l0.09 0.12 1.36 2.55c0.07,0.51 0.13,0.87 0.25,1.36l-0.41 4.07 -0.8 3.86 -0.75 1.68 -0.41 0.5 -0.15 0.12c-0.07,0.05 -0.13,0.12 -0.17,0.2l-0.47 0.91 -0.35 0.29c-0.12,0.08 -0.21,0.22 -0.22,0.38l-0.03 0.29 -0.18 0.29c-0.08,0.12 -0.11,0.27 -0.07,0.43l0.72 2.89 -0.28 1.05 -0.52 1.15c-0.03,0.06 -0.05,0.13 -0.06,0.2l-0.04 0.42 0.01 0.17c0.12,0.5 0.16,0.7 0.34,1.16l0.09 0.16c0.31,0.37 0.62,0.63 0.98,0.97l0.12 0.13 0.08 0.23 -0.02 0.21 -0.45 1.01 -0.99 0.81 -2.31 0.98 -4.32 1.45c-0.58,0.06 -0.77,0.22 -1.23,-0.07 -1.16,-0.95 -1.76,-1.44 -2.97,-2.2l-0.14 -0.07 -1.14 -0.34 -1.88 -0.19 -0.18 0.01 -0.56 0.13 -0.33 -0.03c-0.08,-0.01 -0.16,0 -0.25,0.03l-0.44 0.17 -0.15 0.09 -0.44 0.36c-0.05,0.04 -0.1,0.09 -0.13,0.15l-0.21 0.32 -0.16 0.13c-0.08,0.07 -0.15,0.17 -0.18,0.28l-0.31 1.16c-0.55,0.94 -1.09,1.79 -1.53,2.77 -0.03,0.06 -0.05,0.13 -0.06,0.2l-0.14 1.47 0.01 0.17 0.29 1.3c0.03,0.1 0.08,0.2 0.17,0.28l0.75 0.69 0.32 0.39 0.48 0.8 0.3 1.03 0.14 0.62c0.02,0.1 0.08,0.2 0.16,0.28l0.75 0.69c0.55,0.66 1.04,1 1.74,1.44l0.25 0.47 0.25 1.4c0.1,1.39 0.24,2.28 0.49,3.66 0.02,0.09 0.06,0.18 0.12,0.25 0.42,0.52 0.68,0.75 1.2,1.23l0.15 0.09 1.17 0.53 0.1 0.06c0.02,0.15 0.11,0.29 0.25,0.38l0.21 0.13 0.22 0.99 -0.13 1.3 -0.53 1.33c-0.02,0.05 -0.04,0.11 -0.04,0.17l-0.07 0.71 -0.39 0.61 -0.14 0.11c-0.12,0.09 -0.2,0.23 -0.22,0.39l-0.08 0.83c-0.01,0.14 0.03,0.29 0.12,0.41l0.32 0.39 0.14 0.35c0.03,0.08 0.08,0.15 0.14,0.21l0.76 0.69c0.06,0.08 0.15,0.13 0.26,0.15l1.35 0.34 0.25 0.15 0.13 0.16c0.09,0.11 0.22,0.19 0.37,0.2l0.21 0.02c0.08,0.01 0.17,0 0.25,-0.03l0.51 -0.2 0.68 0.83c0.05,0.07 0.12,0.13 0.21,0.17l0.57 0.26 0.18 0.11c0.2,0.92 0.6,1.75 1.03,2.59l0.73 1.13c0.05,0.07 0.12,0.13 0.2,0.18l1.37 0.76 0.8 0.5 0.12 0.05 1.77 0.59 0.73 0.46c0.07,0.04 0.16,0.08 0.25,0.09l0.19 0.02c0.11,0.01 0.22,-0.01 0.33,-0.06l0.67 -0.36c0.06,-0.03 0.12,-0.08 0.17,-0.14l0.48 -0.58 0.42 -0.46 2.05 0.91c0.08,0.04 0.18,0.06 0.28,0.06 1.57,-0.11 2.32,-0.32 3.93,-0.68 0.12,-0.02 0.22,-0.08 0.3,-0.17 0.06,-0.01 0.12,-0.03 0.18,-0.05z"/>
   <path id="brrasil.svg" class="fil0 str1" d="M16.83 1087.66c1.59,3.46 4.94,5.27 7.41,7.9 1.62,2.61 3.22,6.06 4.81,9.52 1.6,3.46 4.92,6.11 4.81,9.52 -0.08,2.55 -4.39,4.12 -5.32,6.64 -0.05,1.7 -0.11,3.4 0.66,5.98l2.47 2.63c3.41,0.11 4.37,-3.26 6.97,-4.89l4.25 0.14c1.68,0.9 1.57,4.31 3.27,4.36 0.82,0.88 2.63,-2.47 4.31,-1.57 1.7,0.06 3.37,0.96 4.17,2.69 2.44,3.48 1.46,7.71 3.9,11.19 1.62,2.61 5,3.56 8.37,4.52 2.56,0.08 5.98,-0.66 7.74,-2.31 2.63,-2.47 2.74,-5.87 4.49,-7.52 1.76,-1.64 4.28,-0.71 6.01,-1.51 1.73,-0.8 3.49,-2.44 6.06,-3.21 0.88,-0.83 3.51,-3.3 4.34,-2.42 2.44,3.48 1.46,7.71 1.35,11.11 0.53,10.23 -3.22,21.18 -0.12,30.65 0.74,3.43 5.88,2.74 9.3,1.99 3.43,-0.74 6.09,-4.06 9.49,-3.95 4.28,-0.72 8.51,0.26 11.91,0.37 5.08,1.01 11.03,1.2 16.14,1.36 5.92,1.04 11.85,2.08 17.86,0.57 2.55,0.08 5.21,-3.24 6.14,-5.77 1.76,-1.64 0.16,-5.1 1.92,-6.75 0.87,-0.82 4.28,-0.72 5.98,-0.66 1.7,0.06 2.47,2.63 3.35,1.81 3.42,-0.74 6.06,-3.21 7.81,-4.86 2.63,-2.47 3.62,-6.7 6.22,-8.32 1.73,-0.8 3.33,2.66 4.2,1.84 2.61,-1.62 3.57,-5 5.35,-7.5 2.63,-2.47 6.11,-4.91 8.69,-5.68 4.31,-1.57 9.44,-2.26 13.72,-2.98 2.55,0.08 4.28,-0.71 6.83,-0.63 2.55,0.08 5.08,1.01 7.63,1.09 1.7,0.05 3.46,-1.59 5.16,-1.54 0.87,-0.82 2.63,-2.47 3.42,-0.74 2.48,2.63 3.16,7.76 3.06,11.16 -0.11,3.41 -3.57,5 -3.65,7.55 -0.96,3.37 -0.21,6.8 0.56,9.38 0.77,2.58 3.29,3.51 4.06,6.09 0.77,2.58 0.69,5.13 -0.24,7.66 -0.9,1.67 -4.28,0.71 -4.33,2.41 -0.11,3.41 1.51,6.01 2.28,8.59 1.59,3.45 1.49,6.86 3.93,10.34 2.42,4.33 5.69,8.69 9.86,11.38 3.32,2.66 7.57,2.79 10.92,4.6 1.65,1.76 0.66,5.98 3.16,7.76 2.5,1.78 5.9,1.89 8.48,1.12 3.4,0.11 5.98,-0.66 8.56,-1.43 0.85,0.03 1.76,-1.65 3.46,-1.59 3.37,0.95 7.54,3.64 10.89,5.45 2.5,1.78 3.24,5.21 5.74,6.99 2.53,0.93 5.13,-0.69 6.78,1.07 3.38,0.96 4.94,5.26 8.32,6.22 2.5,1.78 5.87,2.74 8.42,2.82 1.68,0.91 4.28,-0.72 5.93,1.04 3.32,2.66 4.86,7.82 9.03,10.5 2.5,1.78 6.73,2.77 11.01,2.05 1.73,-0.79 1.86,-5.05 4.41,-4.97 3.43,-0.74 5.9,1.89 9.28,2.85 2.5,1.78 4.99,3.57 7.49,5.35 3.35,1.81 8.43,2.82 10.02,6.27 1.62,2.61 -1.92,6.75 -1.17,10.18 0.71,4.28 4.01,7.79 5.57,12.1 0.77,2.58 -0.21,6.8 -0.32,10.21 -0.03,0.85 0.8,1.73 -0.08,2.55 -2.58,0.77 -5.08,-1.01 -6.8,-0.22 -0.88,0.83 -0.11,3.41 0.71,4.28 0.8,1.73 3.32,2.66 4.09,5.24 1.6,3.46 2.31,7.74 2.18,11.99 0.74,3.43 -0.22,6.8 0.56,9.38 0.74,3.43 3.18,6.91 5.71,7.85 6.75,1.91 14.46,0.45 22.11,0.69 6.78,1.07 13.58,1.28 20.39,1.5 1.67,0.9 6.01,-1.51 5.93,1.04 0.77,2.58 -4.39,4.11 -5.35,7.49 -0.08,2.55 2.42,4.33 3.21,6.06 1.6,3.46 1.46,7.71 3.08,10.32 1.62,2.6 4.15,3.53 6.65,5.32 2.47,2.63 4.09,5.23 6.56,7.86 2.47,2.64 4.92,6.12 6.51,9.58 1.59,3.45 1.48,6.86 1.35,11.11 -0.11,3.4 -1.07,6.78 -2.88,10.12 -0.98,4.23 -3.67,8.4 -5.5,12.6 -1.01,5.08 -2.85,9.28 -4.68,13.47 -0.94,2.53 -3.59,5.85 -2.82,8.43 0.77,2.58 4.17,2.69 5.84,3.59 0.8,1.73 1.6,3.46 0.72,4.28 -0.91,1.68 -3.4,-0.11 -5.16,1.54 -1.75,1.65 -2.71,5.02 -1.94,7.6 -0.11,3.41 2.36,6.04 3.11,9.47 0.79,1.72 1.59,3.45 2.36,6.03 0.8,1.73 2.44,3.48 2.36,6.03 0.75,3.43 0.64,6.83 -0.34,11.06 -0.06,1.7 -0.96,3.38 -1.89,5.9 -0.06,1.7 0.71,4.28 0.66,5.98 -0.08,2.55 -1.86,5.05 -1.95,7.6 -0.08,2.56 -0.18,5.96 2.31,7.74 2.53,0.93 5.19,-2.39 7.74,-2.31 2.55,0.08 5.93,1.04 9.33,1.15 2.52,0.93 5.95,0.18 8.48,1.12 2.55,0.08 4.2,1.83 5.9,1.89 1.67,0.9 4.2,1.83 5.9,1.89 1.73,-0.8 1.89,-5.9 4.41,-4.97 2.55,0.08 2.42,4.33 4.92,6.11 3.35,1.81 8.5,0.27 11.85,2.08 2.47,2.63 4.01,7.79 4.76,11.22 2.33,6.88 2.15,12.84 3.63,19.69 0.74,3.43 0.58,8.54 3.9,11.2 1.65,1.75 5.9,1.89 9.28,2.84 4.25,0.14 8.56,-1.43 11.93,-0.47 3.38,0.96 8.43,2.82 9.17,6.25 1.57,4.31 -3.67,8.4 -3.8,12.65 -0.11,3.4 2.36,6.03 1.4,9.41 -0.08,2.55 -2.71,5.02 -2.82,8.42 -0.9,1.68 2.47,2.64 1.57,4.31 -0.9,1.68 -3.43,0.74 -4.33,2.42 -0.91,1.67 -0.99,4.23 -0.22,6.8 -0.08,2.55 -0.16,5.11 2.37,6.04 3.37,0.95 8.61,-3.14 11.96,-1.33 4.17,2.69 5.68,8.7 7.25,13 1.62,2.61 2.36,6.04 2.28,8.59 -0.9,1.67 -3.48,2.44 -3.54,4.15 -0.93,2.52 0.69,5.13 0.59,8.53 -0.08,2.55 -1.02,5.07 -1.95,7.6 -1.81,3.35 -2.74,5.87 -5.37,8.34 -1.75,1.65 -3.48,2.45 -6.06,3.22 -2.58,0.77 -5.95,-0.19 -9.38,0.55 -3.46,1.6 -6.12,4.92 -8.72,6.54 -2.61,1.62 -4.39,4.12 -7,5.74 -3.48,2.44 -7.79,4.01 -12.12,6.43 -1.76,1.64 -2.69,4.17 -5.32,6.64 -1.78,2.5 -4.41,4.97 -6.19,7.47 -1.76,1.64 -2.66,3.32 -4.42,4.97 -2.63,2.47 -5.21,3.24 -7.82,4.86 -1.78,2.5 -2.73,5.87 -4.49,7.52 -1.78,2.5 -4.36,3.26 -6.14,5.76 -1.78,2.5 -1.92,6.75 -4.55,9.22 -2.63,2.48 -6.86,1.49 -8.64,3.99 -2.61,1.62 -2.71,5.02 -3.64,7.55 -0.91,1.67 -2.69,4.17 -1.01,5.07 1.64,1.76 4.3,-1.57 5.97,-0.66 1.71,0.05 2.48,2.63 3.33,2.66 1.7,0.05 2.6,-1.62 3.48,-2.45 0.88,-0.82 0.93,-2.52 1.81,-3.34 1.73,-0.8 4.31,-1.57 6.01,-1.52 1.7,0.06 1.62,2.61 3.29,3.51 0.83,0.88 2.53,0.94 3.35,1.81 1.65,1.76 0.72,4.28 2.36,6.04 1.65,1.75 5.05,1.86 5.88,2.73 1.65,1.76 1.56,4.31 2.36,6.04 0.77,2.58 1.54,5.15 2.37,6.03 0.82,0.88 2.52,0.93 4.25,0.14 0.85,0.02 2.58,-0.77 4.3,-1.57 0.88,-0.82 1.73,-0.8 1.76,-1.65 0.88,-0.82 0.08,-2.55 0.11,-3.4 0.87,-0.82 1.73,-0.8 2.58,-0.77 1.7,0.05 5.1,0.16 5.05,1.86 0.79,1.73 -2.66,3.32 -3.57,5 -0.05,1.7 0.75,3.42 1.57,4.3 2.44,3.49 5.74,7 9.94,8.83 2.5,1.78 6.75,1.92 9.25,3.7 2.5,1.78 4.97,4.41 6.62,6.17 1.62,2.6 2.39,5.18 4.88,6.96 2.47,2.64 6.73,2.77 9.17,6.25 3.32,2.66 3.16,7.77 5.61,11.25 6.5,9.57 16.02,4.76 8.87,15.61 -0.03,0.85 -1.76,1.64 -2.63,2.47 -1.73,0.79 -2.58,0.77 -3.46,1.59 -0.9,1.68 -1.78,2.5 -1.83,4.2 -0.06,1.7 -0.99,4.23 -0.22,6.8 -0.05,1.71 1.59,3.46 2.42,4.34 1.67,0.9 2.52,0.93 4.25,0.13 0.85,0.03 1.76,-1.65 2.63,-2.47 2.58,-0.77 5.16,-1.54 6.89,-2.34 2.6,-1.62 6.06,-3.21 7.84,-5.71 1.76,-1.65 1.84,-4.2 1.92,-6.75 0.9,-1.67 0.95,-3.37 1.01,-5.07 0.9,-1.68 1.81,-3.35 1.86,-5.05 1.81,-3.35 4.47,-6.67 4.58,-10.08 0.9,-1.67 -1.6,-3.45 -1.52,-6 0.06,-1.71 1.78,-2.5 1.81,-3.35 0.93,-2.53 1.01,-5.08 2.8,-7.58 1.8,-3.35 5.34,-7.49 8,-10.81 1.76,-1.65 4.31,-1.57 5.18,-2.39 1.73,-0.8 2.61,-1.62 3.51,-3.3 0.91,-1.67 0.14,-4.25 1.07,-6.78 0.93,-2.52 3.54,-4.14 4.47,-6.67 0.9,-1.67 2.63,-2.47 2.71,-5.02 0.03,-0.85 -1.65,-1.75 -1.62,-2.6 -1.65,-1.76 -2.44,-3.49 -3.21,-6.07 0.02,-0.85 -0.8,-1.72 0.08,-2.55 2.55,0.08 5.1,0.16 6.75,1.92 2.47,2.63 1.51,6.01 3.13,8.61 1.65,1.76 3.32,2.66 4.17,2.69 1.7,0.05 0.91,-1.68 0.93,-2.53 0.88,-0.82 0.11,-3.4 0.94,-2.52 1.7,0.05 1.62,2.6 3.29,3.51 0.85,0.03 1.78,-2.5 2.61,-1.62 0.82,0.88 0.77,2.58 -0.14,4.25 -0.88,0.82 -4.25,-0.13 -5.16,1.54 -0.87,0.82 0.75,3.43 -0.16,5.1 -0.9,1.68 -2.63,2.48 -4.41,4.97 -0.88,0.83 -0.08,2.56 -1.81,3.35 -2.6,1.62 -6.8,-0.21 -8.59,2.29 -1.78,2.49 1.49,6.85 0.56,9.38 -0.9,1.67 -4.28,0.71 -6.01,1.51 -1.73,0.8 -2.63,2.47 -3.51,3.3 -2.63,2.47 -6.94,4.03 -9.57,6.5 -0.9,1.68 -0.98,4.23 -0.19,5.96 1.65,1.75 5.03,2.71 6.78,1.06 1.7,0.06 1.81,-3.34 3.57,-4.99 1.75,-1.65 4.36,-3.27 6.11,-4.92 3.46,-1.59 6.06,-3.21 8.69,-5.68 2.61,-1.62 3.54,-4.15 5.29,-5.79 2.64,-2.48 5.19,-2.4 6.94,-4.04 2.66,-3.32 4.47,-6.67 6.31,-10.87 1.75,-1.65 3.53,-4.15 3.61,-6.7 1.81,-3.35 1.92,-6.75 2.88,-10.12 0.03,-0.86 -0.77,-2.58 0.11,-3.41 0.9,-1.67 3.45,-1.59 4.36,-3.26 0.88,-0.83 0.93,-2.53 1.81,-3.35 1.78,-2.5 4.33,-2.42 5.26,-4.95 0.91,-1.67 -1.56,-4.3 -1.51,-6 0.03,-0.85 0.08,-2.55 0.93,-2.53 1.7,0.06 3.35,1.81 5.9,1.89 1.73,-0.79 2.66,-3.32 3.54,-4.14 1.78,-2.5 3.53,-4.15 5.29,-5.8 3.45,-1.59 6.86,-1.48 10.31,-3.08 1.76,-1.64 3.54,-4.14 5.32,-6.64 0.91,-1.67 2.66,-3.32 3.57,-4.99 0.95,-3.38 0.21,-6.81 1.14,-9.33 0.99,-4.23 3.65,-7.55 3.78,-11.8 0.93,-2.53 -1.59,-3.46 -1.51,-6.01 0.93,-2.53 4.41,-4.97 4.52,-8.37 0.05,-1.7 -2.45,-3.49 -2.39,-5.19 -0.75,-3.43 -0.64,-6.83 -0.53,-10.23 0.11,-3.4 0.19,-5.96 1.15,-9.33 0.13,-4.25 1.09,-7.63 2.92,-11.83 0.94,-2.52 5.21,-3.24 5.32,-6.64 0.06,-1.7 -3.32,-2.66 -4.97,-4.42l0.08 -2.55c0.88,-0.82 1.76,-1.65 2.64,-2.47 3.4,0.11 6.61,6.17 10.04,5.43 5.13,-0.69 4.53,-8.37 7.18,-11.7 3.51,-3.29 6.97,-4.88 11.3,-7.3 4.36,-3.27 9.55,-5.66 14.76,-8.9 2.6,-1.62 5.23,-4.09 7.84,-5.71 1.76,-1.65 3.51,-3.3 6.09,-4.07 2.6,-1.62 6.03,-2.36 9.49,-3.96 2.6,-1.61 5.26,-4.94 8.67,-4.83 3.42,-0.74 7.6,1.94 11,2.05 3.4,0.11 7.65,0.24 10.26,-1.38 3.45,-1.59 4.44,-5.82 7.05,-7.44 2.63,-2.47 6.88,-2.33 9.51,-4.81 1.76,-1.64 0.99,-4.22 2.77,-6.72 0.9,-1.67 1.81,-3.35 3.54,-4.14 2.55,0.08 5.05,1.86 7.57,2.79 1.7,0.05 4.2,1.83 6.75,1.91 1.7,0.06 3.51,-3.29 6.09,-4.06 1.7,0.05 4.25,0.13 5.93,1.04 1.67,0.9 1.59,3.45 3.24,5.21 0.82,0.88 2.5,1.78 4.2,1.83 4.28,-0.71 9.38,-0.55 12.86,-2.99 1.73,-0.8 0.99,-4.23 2.72,-5.03 1.7,0.06 2.44,3.49 4.11,4.39 2.53,0.93 6.78,1.06 9.31,2 2.52,0.93 3.26,4.36 4.99,3.56 4.28,-0.72 8.61,-3.13 11.27,-6.46 1.79,-2.49 0.22,-6.8 1.97,-8.45 1.79,-2.5 5.19,-2.39 6.94,-4.04 6.04,-2.36 12.05,-3.87 16.43,-7.99 1.73,-0.8 0.96,-3.38 1.01,-5.08 0.06,-1.7 -2.49,-1.78 -2.47,-2.63 0.06,-1.7 1.84,-4.2 3.54,-4.15 1.7,0.06 3.27,4.36 4.17,2.69 1.76,-1.65 -0.69,-5.13 0.27,-8.51 0.03,-0.85 0.93,-2.52 1.83,-4.19 2.66,-3.33 5.32,-6.65 8.83,-9.94 2.66,-3.32 7.02,-6.59 9.68,-9.91 0.91,-1.68 0.99,-4.23 2.74,-5.88 3.54,-4.14 7.95,-9.11 11.49,-13.26 4.39,-4.12 8.75,-7.38 11.43,-11.55 2.69,-4.18 2.85,-9.28 3.86,-14.36 0.96,-3.37 0.24,-7.65 1.23,-11.88 0.98,-4.22 1.97,-8.45 4.63,-11.77 1.86,-5.05 5.39,-9.2 8.08,-13.37 2.63,-2.47 6.12,-4.91 7.07,-8.29 1.81,-3.35 0.25,-7.66 1.2,-11.03 1.1,-7.63 3.86,-14.35 6.6,-20.23 1.89,-5.9 5.46,-10.89 7.32,-15.94 0.9,-1.68 2.66,-3.32 2.71,-5.02 0.11,-3.41 -1.51,-6.01 -1.4,-9.41 0.08,-2.56 2.71,-5.03 2.79,-7.58 -0.72,-4.28 -4.01,-7.79 -3.88,-12.04 0.11,-3.4 1.95,-7.6 3.76,-10.95 1.04,-5.93 4.6,-10.92 4.76,-16.03 0.16,-5.1 -4.83,-8.66 -4.67,-13.77 0.13,-4.25 3.67,-8.39 5.5,-12.59 0.94,-2.53 1.01,-5.08 1.92,-6.75 1.75,-1.65 5.18,-2.39 5.24,-4.1 0.08,-2.55 -3.27,-4.36 -3.19,-6.91 0.05,-1.7 2.68,-4.17 4.36,-3.27 3.35,1.81 1.46,7.71 4.81,9.52 2.5,1.78 6.83,-0.63 9.43,-2.25 2.61,-1.62 4.42,-4.97 7.02,-6.59 4.39,-4.12 9.55,-5.66 13.08,-9.81 3.51,-3.29 5.37,-8.34 8.06,-12.51l0.03 -0.85c0.08,-2.56 1.04,-5.93 1.97,-8.46 0.93,-2.52 3.56,-4.99 4.52,-8.37 0.91,-1.67 -0.74,-3.42 0.14,-4.25 1.72,-0.8 3.32,2.66 4.19,1.84 2.61,-1.62 2.74,-5.88 4.53,-8.37 2.63,-2.48 6.11,-4.92 9.6,-7.36 5.26,-4.95 10.52,-9.89 16.61,-13.95 2.61,-1.62 5.21,-3.24 7.84,-5.71 1.76,-1.65 1.02,-5.08 2.77,-6.73 1.73,-0.79 4.25,0.14 5.98,-0.66 1.76,-1.65 3.51,-3.29 4.44,-5.82 0.88,-0.82 -0.74,-3.43 0.17,-5.1 3.53,-4.15 8.72,-6.54 12.25,-10.68 3.51,-3.3 7.05,-7.44 8.88,-11.64 3.57,-5 4.58,-10.08 7.32,-15.95 2.74,-5.87 6.33,-11.72 8.25,-18.47 1.06,-6.78 1.28,-13.58 0.61,-19.56 0.27,-8.51 0.51,-16.16 -0.07,-24.7 -0.71,-4.28 -1.4,-9.41 -2.09,-14.54 -0.74,-3.42 -0.64,-6.83 -1.35,-11.11 -2.34,-6.88 -4.68,-13.77 -7.89,-19.83 -1.62,-2.6 -4.12,-4.39 -6.64,-5.32 -6.73,-2.76 -13.51,-3.83 -20.28,-4.89 -5.08,-1.02 -10.26,1.37 -15.34,0.36 -5.9,-1.89 -10.87,-6.3 -15.89,-9.02 -5.82,-4.44 -9.94,-8.82 -14.94,-12.39 -5.81,-4.44 -10.78,-8.85 -15.73,-14.12 -4.96,-4.41 -9.06,-9.65 -14,-14.91 -4.14,-3.54 -8.26,-7.93 -13.28,-10.64 -5,-3.56 -11.8,-3.78 -17.68,-6.52 -3.32,-2.66 -6.61,-6.17 -10.81,-8 -5.05,-1.87 -10.16,-2.03 -15.23,-3.04 -5.11,-0.16 -11.09,0.5 -16.22,1.19 -3.43,0.75 -6.94,4.04 -11.19,3.91 -4.23,-0.99 -7.49,-5.35 -11.69,-7.19 -2.53,-0.93 -5.88,-2.73 -9.28,-2.84 -3.37,-0.96 -7.71,1.46 -11.08,0.5 -1.68,-0.91 -2.42,-4.34 -4.12,-4.39 -3.35,-1.81 -7.66,-0.24 -11.03,-1.2 -1.68,-0.9 -1.57,-4.31 -3.24,-5.21 -4.2,-1.84 -9.3,-2 -13.5,-3.83 -0.85,-0.03 -1.62,-2.61 -3.32,-2.66 -1.73,0.79 -1.02,5.08 -2.74,5.87 -2.58,0.77 -5.08,-1.01 -6.73,-2.76 -1.67,-0.91 -0.69,-5.14 -2.42,-4.34 -2.6,1.62 -1.88,5.9 -3.67,8.4 -1.73,0.8 -3.43,0.74 -5.1,-0.16 -1.7,-0.05 -3.35,-1.81 -4.17,-2.69 -1.68,-0.9 -3.35,-1.81 -5.08,-1.01 -1.78,2.5 -1.91,6.75 -2.87,10.13 -1.78,2.5 -2.72,5.02 -5.35,7.49 -1.75,1.65 -5.18,2.39 -6.96,4.89 -1.81,3.35 -1.31,14.43 -2.91,10.98 -1.56,-4.31 0.3,-9.36 2.14,-13.56 0.05,-1.7 1.83,-4.2 2.76,-6.72 0.91,-1.67 0.11,-3.4 1.01,-5.08 0.94,-2.52 2.72,-5.02 4.5,-7.52 0.9,-1.67 2.66,-3.32 4.41,-4.97 0.88,-0.82 3.46,-1.59 3.49,-2.44 -0.8,-1.73 -2.45,-3.49 -4.15,-3.54 -1.73,0.8 -3.56,5 -5.21,3.24 -1.67,-0.9 0.96,-3.37 1.86,-5.05 0.91,-1.67 3.49,-2.44 3.54,-4.14 0.08,-2.55 -1.57,-4.31 -3.21,-6.06 -0.83,-0.88 -3.41,-0.11 -4.23,-0.99 -1.62,-2.6 -2.36,-6.03 -4.01,-7.79 -0.83,-0.88 -2.55,-0.08 -3.38,-0.96 -1.7,-0.05 -2.47,-2.63 -4.2,-1.83 -2.55,-0.08 -4.3,1.57 -5.23,4.09 -0.93,2.53 3.18,6.91 0.6,7.68 -3.42,0.75 -4.96,-4.41 -5.73,-6.99 -0.77,-2.58 3.53,-4.14 3.61,-6.7 -0.79,-1.72 -2.47,-2.63 -5.02,-2.71 -0.82,-0.88 -0.9,1.67 -1.75,1.65 -1.68,-0.91 0.13,-4.25 -1.57,-4.31 -2.53,-0.93 -5.16,1.54 -7.71,1.46 -2.55,-0.08 -4.99,-3.56 -7.55,-3.64 -0.85,-0.03 -1.81,3.34 -2.63,2.47 -1.65,-1.76 0.19,-5.96 -1.49,-6.86 -2.52,-0.93 -5.23,4.09 -7.76,3.16 -2.52,-0.93 -2.33,-6.89 -5.68,-8.7 -4.17,-2.68 -8.43,-2.82 -13.5,-3.83 -4.2,-1.83 -8.38,-4.52 -12.6,-5.5 -1.7,-0.06 2.42,4.33 0.74,3.42 -3.4,-0.1 -6.67,-4.46 -10.04,-5.42 -2.55,-0.08 -3.51,3.29 -4.36,3.27 -2.61,1.62 -5.13,0.69 -6.89,2.33 -2.58,0.77 -3.51,3.3 -5.26,4.95 -2.64,2.47 -5.27,4.94 -7.9,7.41 -1.76,1.65 -5.21,3.24 -5.27,4.94 -0.13,4.25 7.44,7.05 4.81,9.52 -1.78,2.5 -5.85,-3.59 -8.4,-3.67 -3.43,0.74 -5.26,4.94 -7.87,6.56 -1.73,0.8 -2.55,-0.08 -3.4,-0.11 -3.4,-0.11 -6.78,-1.06 -10.23,0.53 -3.43,0.74 -6.12,4.92 -9.58,6.51 -2.57,0.77 -5.1,-0.16 -7.65,-0.24 -3.4,-0.11 -6.72,-2.77 -10.15,-2.03 -2.61,1.62 -1.98,8.46 -5.35,7.5 -5.1,-0.16 -5.69,-8.7 -9.91,-9.68 -2.53,-0.93 -2.74,5.87 -5.32,6.64 -2.58,0.77 -4.17,-2.69 -4.09,-5.24 0.93,-2.52 6.03,-2.36 7.84,-5.71 0.93,-2.52 1.07,-6.78 0.3,-9.35 -0.77,-2.58 -1.52,-6.01 -4.07,-6.09 -6.8,-0.22 -12.89,3.85 -19.78,6.18 -6,1.52 -12.92,4.7 -18.9,5.37 -4.28,0.71 -8.58,2.28 -11.9,-0.38 -1.68,-0.9 2.68,-4.17 4.41,-4.97 4.31,-1.57 10.18,1.17 14.51,-1.24 3.51,-3.3 3.67,-8.4 5.53,-13.45 0.03,-0.85 0.09,-2.55 0.96,-3.38 3.59,-5.84 7.21,-12.54 11.62,-17.51 5.32,-6.64 10.59,-11.59 16.73,-17.35 2.63,-2.47 6.94,-4.04 9.6,-7.36 5.24,-4.09 8.8,-9.09 12.36,-14.08 3.54,-4.15 7.95,-9.12 8.99,-15.05 0.11,-3.4 -2.33,-6.88 -4.83,-8.66 -5.02,-2.72 -11.09,0.5 -15.26,-2.19 -3.35,-1.81 -4.06,-6.09 -4.81,-9.52 -0.79,-1.72 0.96,-3.37 1.04,-5.92 -0.74,-3.43 -2.34,-6.89 -3.93,-10.34 -2.39,-5.19 -4.81,-9.52 -6.32,-15.53 -0.69,-5.13 -0.53,-10.23 -1.22,-15.36 -0.74,-3.43 0.24,-7.66 -1.35,-11.11 -2.39,-5.19 -5.55,-12.95 -11.48,-13.99 -3.4,-0.11 3.99,8.64 2.18,11.99 -1.78,2.5 -4.07,-6.09 -6.64,-5.32 -6.09,4.07 -9.74,11.61 -14.18,17.43 -4.49,7.52 -8.99,15.04 -13.48,22.57 -1.84,4.19 -3.65,7.54 -5.45,10.89 -1.81,3.35 -1.95,7.6 -4.55,9.22 -3.49,2.45 -8.64,3.99 -12.87,3 -4.22,-0.98 -4.91,-6.11 -8.29,-7.07 -1.67,-0.91 -3.48,2.44 -5.18,2.39 -1.71,-0.05 -3.3,-3.51 -5,-3.57 -5.13,0.69 -7.87,6.57 -12.12,6.43 -4.28,0.72 -6.7,-3.61 -10.9,-5.45 -0.85,-0.03 -2.63,2.47 -3.46,1.59 -4.17,-2.68 -6.48,-10.42 -11.58,-10.58 -6.78,-1.07 -13.83,6.38 -20.66,7.01 -3.4,-0.11 -5.76,-6.14 -8.34,-5.37 -4.28,0.72 -7.79,4.01 -8.77,8.24 -0.14,4.25 5.71,7.84 5.57,12.09 -0.05,1.7 -3.51,3.3 -5.18,2.39 -4.2,-1.83 -6.56,-7.87 -10.79,-8.85 -1.67,-0.91 1.57,4.3 -0.19,5.95 -1.75,1.65 -6.06,3.22 -9.46,3.11 -2.55,-0.08 -5,-3.56 -8.4,-3.67 -4.23,-0.99 -10.15,-2.03 -14.49,0.39 -1.72,0.8 2.4,5.19 -0.18,5.95 -4.34,2.42 -11.06,-0.34 -16.22,1.2 -1.7,-0.06 1.6,3.45 -0.13,4.25 -2.58,0.77 -5.03,-2.71 -6.75,-1.92 -5.19,2.39 -6.25,9.17 -11.41,10.71 -3.46,1.59 -8.48,-1.12 -11.83,-2.93 -5.02,-2.71 -10.01,-6.27 -13.28,-10.64 -2.48,-2.63 -3.22,-6.06 -3.96,-9.49 0.11,-3.4 3.62,-6.69 2.87,-10.12 -0.77,-2.58 -5.84,-3.59 -6.61,-6.17 -1.57,-4.31 -2.23,-10.29 -2.1,-14.54 0.94,-2.53 4.36,-3.27 5.27,-4.94 1.78,-2.5 -0.69,-5.13 1.09,-7.63 2.66,-3.32 8.61,-3.13 9.57,-6.51 1.86,-5.05 -1.4,-9.41 -2.09,-14.54 -0.75,-3.43 -2.34,-6.89 -3.11,-9.46 -1.65,-1.76 -2.42,-4.34 -4.09,-5.24 -1.68,-0.91 -5.13,0.69 -6.78,-1.07 -3.3,-3.51 -4.86,-7.81 -4.73,-12.07 -0.74,-3.42 3.59,-5.84 2.85,-9.27 -0.8,-1.73 -4.15,-3.54 -6.7,-3.62 -2.58,0.77 -3.53,4.15 -6.14,5.77 -1.73,0.79 -3.43,0.74 -5.1,-0.16 -2.53,-0.94 -4.07,-6.09 -4.97,-4.42 -1.78,2.5 2.39,5.19 2.31,7.74 0.77,2.58 0.69,5.13 -1.07,6.78 -2.66,3.32 -6.14,5.76 -10.45,7.33 -4.33,2.42 -10.29,2.23 -14.62,4.64 -2.6,1.62 -2.74,5.88 -5.35,7.5 -3.45,1.59 -8.55,1.43 -11.98,2.17 -5.13,0.69 -9.31,-1.99 -13.61,-0.43 -4.31,1.57 -7.79,4.01 -10.45,7.34 -0.93,2.52 1.54,5.15 0.61,7.68 -0.91,1.67 -3.43,0.74 -4.26,-0.14 -2.49,-1.78 -3.21,-6.06 -5.74,-6.99 -2.49,-1.78 -5.95,-0.19 -8.47,-1.12 -5.08,-1.01 -10.13,-2.87 -14.3,-5.56 -3.35,-1.81 -3.99,-8.64 -8.24,-8.77 -4.25,-0.14 -8.67,4.83 -11.35,9 -1.78,2.5 -1.09,7.63 1.4,9.41 3.33,2.66 9.41,-1.4 12.71,2.11 2.5,1.78 1.51,6 0.55,9.38 -0.93,2.52 -2.68,4.17 -4.46,6.67 -0.94,2.52 -2.72,5.02 -2.82,8.43 -0.14,4.25 0.61,7.68 1.32,11.96 0.77,2.58 1.57,4.3 3.21,6.06 0.8,1.73 3.35,1.81 5.05,1.86 1.68,0.9 4.15,3.54 6.73,2.77 1.7,0.05 3.51,-3.3 5.21,-3.24 3.37,0.95 7.49,5.34 4.89,6.96 -4.39,4.12 -11.91,-0.37 -16.3,3.74 -6.09,4.07 -4.74,15.18 -10.82,19.24 -2.64,2.48 -2.34,-6.88 -5.74,-6.99 -3.41,-0.11 -4.44,5.82 -7.08,8.29 -6.11,4.92 -12.17,8.13 -17.41,12.22 -2.63,2.47 -3.7,9.25 -7.07,8.3 -4.26,-0.14 -1.46,-7.71 -4.79,-10.37 -2.49,-1.78 -5.87,-2.74 -8.5,-0.27 -2.63,2.47 -0.35,11.06 -4.6,10.92 -5.98,0.66 -9.17,-6.25 -14.17,-9.81 -4.17,-2.69 -9.22,-4.55 -11.64,-8.88 -1.64,-1.76 1.02,-5.08 0.25,-7.66 -3.19,-6.91 -5.45,-16.35 -12.17,-19.11 -5.05,-1.87 -6.28,10.01 -11.41,10.7 -3.43,0.75 -4.06,-6.09 -7.41,-7.89 -2.53,-0.94 -5.93,-1.04 -6.86,1.48 -0.93,2.53 5.71,7.84 2.28,8.59 -11.19,3.9 -23.02,0.97 -34.92,0.6 -4.26,-0.14 -10.95,-3.76 -12.79,0.44 -2.77,6.73 -1.33,15.29 1.83,23.05 0.77,2.58 5.95,0.19 8.5,0.27 2.58,-0.77 5.19,-2.39 6.83,-0.64 2.5,1.78 1.52,6.01 1.44,8.56 -0.93,2.52 -2.74,5.87 -5.29,5.79 -2.56,-0.08 -4.07,-6.09 -7.47,-6.19 -4.28,0.71 -10.32,3.08 -12.15,7.28 -2.77,6.72 -1.31,14.43 -0.67,21.26 0.77,2.58 2.41,4.33 4.88,6.97 1.68,0.9 5.08,1.01 5.85,3.59 2.47,2.63 1.51,6 3.11,9.46 0.77,2.58 3.27,4.36 3.19,6.91 -0.14,4.26 -2.8,7.58 -2.93,11.83 -0.11,3.4 1.46,7.71 0.5,11.08 -3.15,18.64 -7.17,38.09 -12.01,56.67 -1.94,7.6 -2.24,16.96 -7.5,21.9 -2.64,2.47 -6.59,-7.02 -10.02,-6.28 -5.13,0.69 -7.05,7.44 -12.18,8.13 -2.58,0.77 -4.97,-4.41 -7.54,-3.64 -2.56,-0.08 -3.51,3.29 -6.09,4.06 -2.61,1.62 -5.93,-1.04 -8.51,-0.27 -5.18,2.39 -8.72,6.54 -13.08,9.81 -4.36,3.26 -9.52,4.8 -13.05,8.95 -4.39,4.12 -7.13,9.99 -8.99,15.04 -1.84,4.2 -2.82,8.43 -3.81,12.65 -0.11,3.41 0.64,6.83 -0.32,10.21 -0.99,4.23 -1.15,9.33 -4.66,12.62 -1.81,3.35 -7.71,1.46 -9.52,4.81 -2.68,4.17 -1.99,9.31 -2.13,13.56 -0.08,2.55 1.52,6.01 -0.24,7.65 -1.78,2.5 -5.98,0.66 -6.91,3.19 -0.9,1.68 0.72,4.28 1.51,6.01 1.65,1.75 4.2,1.83 5.85,3.59 1.65,1.75 0.69,5.13 1.49,6.86 0.77,2.58 1.54,5.15 3.18,6.91l0 0zm662.81 -228.52c2.69,-4.17 5.4,-9.19 8.94,-13.34 2.63,-2.47 7.12,-9.99 9.59,-7.36 3.27,4.36 -1.2,11.03 -3.03,15.23 -1.86,5.05 -5.43,10.05 -9.79,13.32 -3.51,3.29 -9.73,11.61 -13,7.25 -4.12,-4.39 4.58,-10.08 7.29,-15.1l0 0zm28.44 -11.02c-0.95,3.38 2.34,6.89 2.23,10.29 -0.96,3.38 -5.26,4.94 -5.34,7.49 -0.99,4.23 -0.3,9.36 2.15,12.84 1.64,1.76 5.95,0.19 7.6,1.95 1.65,1.75 -1.86,5.05 -0.19,5.95 4.2,1.84 8.51,0.27 11.88,1.23 2.55,0.08 4.17,2.68 6.75,1.91 1.7,0.06 0.96,-3.37 2.72,-5.02 3.45,-1.59 6.83,-0.64 9.43,-2.26 3.43,-0.74 5.24,-4.09 8.64,-3.98 1.7,0.05 2.45,3.48 5,3.56 1.7,0.06 4.31,-1.56 5.24,-4.09 0.08,-2.55 -4.04,-6.94 -2.26,-9.44 2.69,-4.17 9.49,-3.95 13.03,-8.1 3.53,-4.14 11.38,-9.86 8.14,-15.07 -4.07,-6.08 -15.07,-8.13 -21.98,-4.95 -5.22,3.24 -0.43,13.61 -4.85,18.58 -1.78,2.5 -3.21,-6.06 -3.11,-9.46 0.06,-1.71 4.28,-0.72 4.34,-2.42 0.08,-2.55 -1.54,-5.16 -3.22,-6.06 -5.87,-2.74 -11.85,-2.08 -17.81,-2.27 -5.07,-1.01 -11.03,-1.2 -16.16,-0.51 -2.57,0.77 -4.36,3.27 -6.96,4.89 -1.76,1.65 -5.19,2.39 -5.27,4.94l0 0zm16.65 -14.8c5.13,-0.69 10.18,1.18 13.66,-1.27 2.61,-1.62 5.32,-6.64 3.67,-8.4 -4.14,-3.53 -11.08,0.5 -15.25,-2.18 -1.65,-1.76 5.34,-7.49 2.79,-7.58 -5.1,-0.16 -9.46,3.11 -12.97,6.41 -2.61,1.62 -5.24,4.09 -5.35,7.49 -0.93,2.52 -0.19,5.95 2.34,6.88 1.67,0.91 1.81,-3.34 2.71,-5.02 1.76,-1.65 1.84,-4.2 4.41,-4.97 0.88,-0.82 3.38,0.96 2.48,2.63 -0.08,2.56 -5.24,4.1 -4.45,5.83 -0.08,2.55 4.26,0.13 5.96,0.18l0 0zm-22.94 -1.57c-3.43,0.74 -1.97,8.45 -0.35,11.05 1.62,2.61 6.78,1.07 6.83,-0.63 0.14,-4.25 -2.2,-11.14 -6.48,-10.42z"/>
  </g>
  <path class="fil1 str2" d="M1108.15 1099.17c44.8,0 81.13,36.32 81.13,81.12 0,44.81 -36.33,81.13 -81.13,81.13 -44.8,0 -81.12,-36.32 -81.12,-81.13 0,-44.8 36.32,-81.12 81.12,-81.12z"/>
  <path class="fil2 str3" d="M2826.94 54.41c246.37,0 446.09,199.73 446.09,446.1 0,246.37 -199.72,446.09 -446.09,446.09 -246.37,0 -446.1,-199.72 -446.1,-446.09 0,-246.37 199.73,-446.1 446.1,-446.1z"/>
  <g id="sergipe.svg">
   <polygon id="BRSE" class="fil3 str4" points="2674.19,201.4 2677.22,204.42 2704.43,210.46 2708.97,213.49 2713.5,218.02 2722.58,222.56 2733.16,227.1 2736.18,236.17 2743.74,234.66 2764.9,236.17 2770.95,239.19 2780.02,248.26 2789.1,252.8 2805.72,263.38 2811.77,266.41 2819.33,267.92 2826.89,267.92 2834.44,266.41 2845.03,270.94 2867.7,276.99 2879.8,283.03 2887.36,287.57 2902.48,302.69 2903.99,305.71 2907.01,311.76 2908.53,313.27 2911.55,316.29 2914.57,316.29 2919.11,314.78 2922.13,314.78 2932.71,317.8 2941.79,320.82 2959.93,337.45 2964.47,340.47 2970.51,341.99 2976.56,338.96 2982.6,337.45 2988.64,340.47 2993.18,346.52 2994.7,352.56 2996.21,379.78 2997.72,384.31 3002.26,387.33 3014.36,390.36 3017.38,393.38 3023.42,399.42 3026.45,405.47 3027.96,410.01 3030.98,414.54 3037.03,416.06 3049.12,417.57 3053.66,420.59 3061.22,428.15 3073.32,432.69 3074.83,432.69 3077.85,432.69 3082.39,426.64 3088.43,425.13 3092.97,426.64 3103.55,438.74 3108.09,444.79 3111.11,450.83 3111.11,456.88 3109.6,467.46 3109.6,475.02 3112.62,478.04 3123.2,478.04 3141.34,473.5 3142.86,475.02 3150.42,479.55 3151.93,482.58 3154.95,496.18 3157.98,503.74 3153.44,505.25 3142.86,508.28 3133.78,509.79 3127.74,511.3 3123.2,512.82 3118.67,515.84 3106.57,518.86 3105.05,518.86 3102.03,523.4 3100.52,524.91 3095.98,526.43 3047.6,556.67 3006.79,586.9 2991.67,606.56 2988.64,615.63 2984.11,621.68 2968.99,636.79 2965.97,641.33 2964.45,645.87 2962.94,653.43 2961.43,657.96 2940.26,692.73 2935.72,695.75 2932.7,695.75 2932.7,692.73 2934.22,688.19 2934.22,685.17 2932.7,683.66 2931.19,683.66 2929.67,682.14 2928.16,679.12 2925.14,679.12 2923.62,683.66 2920.6,680.63 2916.06,671.56 2914.55,670.05 2902.45,664 2899.43,664 2897.92,662.49 2896.4,662.49 2893.38,664 2893.38,668.54 2893.38,670.05 2894.9,674.59 2896.41,677.61 2899.43,679.13 2900.95,680.64 2902.46,679.13 2905.48,679.13 2908.51,680.64 2910.02,682.15 2913.04,683.67 2917.58,685.18 2917.58,688.2 2911.53,685.18 2910.02,688.2 2911.53,689.72 2916.07,692.74 2917.58,691.23 2919.1,689.71 2920.61,688.2 2922.13,688.2 2925.15,689.71 2926.66,691.23 2928.18,694.25 2925.16,695.76 2928.18,700.3 2928.18,710.88 2929.69,715.42 2929.69,713.9 2932.71,715.42 2925.16,719.96 2916.08,724.49 2910.04,729.03 2907.01,736.59 2905.5,738.1 2902.48,739.62 2899.45,742.64 2896.43,744.15 2894.92,745.67 2890.38,756.25 2881.31,783.46 2876.77,788 2863.17,791.02 2858.63,789.51 2858.63,787.99 2860.15,784.97 2860.15,781.95 2855.61,781.95 2863.17,769.85 2864.68,766.83 2867.7,757.76 2867.7,754.73 2872.24,751.71 2884.34,741.13 2887.36,738.11 2888.87,736.59 2894.92,735.08 2890.38,730.54 2890.38,721.47 2885.85,718.45 2885.85,726.01 2885.85,729.03 2885.85,732.05 2884.33,732.05 2878.29,721.47 2875.26,716.93 2872.24,713.91 2872.24,721.47 2879.8,735.07 2879.8,741.12 2878.29,739.6 2872.24,735.07 2872.24,738.09 2873.76,741.11 2875.27,742.63 2875.27,744.14 2875.27,747.16 2872.25,748.68 2870.73,748.68 2867.71,750.19 2864.69,753.21 2861.66,756.24 2857.13,763.8 2852.59,780.42 2851.08,783.45 2846.54,783.45 2845.03,777.4 2842,766.82 2842,769.84 2840.49,772.86 2837.47,771.35 2834.44,768.33 2837.47,778.91 2838.98,783.45 2842,786.47 2855.61,791 2857.12,792.52 2854.1,803.1 2846.54,810.66 2835.96,815.2 2828.4,818.22 2829.91,818.22 2811.77,824.26 2802.7,825.78 2784.56,819.73 2780.02,825.78 2777,830.31 2772.46,833.34 2770.95,833.34 2764.9,830.31 2751.3,827.29 2745.25,824.27 2734.67,819.73 2728.63,812.17 2724.09,804.61 2721.07,798.57 2719.56,794.03 2716.53,792.52 2712,791 2708.97,787.98 2705.95,784.96 2702.93,783.45 2701.41,784.96 2698.39,786.47 2696.88,786.47 2695.36,784.96 2692.34,783.45 2681.76,781.93 2675.71,777.39 2674.2,774.37 2671.18,771.35 2671.18,768.33 2671.18,765.3 2672.69,763.79 2675.71,757.75 2675.71,751.7 2678.74,741.12 2678.74,735.07 2678.74,730.54 2677.22,726 2675.71,721.46 2672.69,719.95 2672.69,718.44 2669.66,716.92 2660.59,713.9 2654.55,709.36 2651.52,706.34 2648.5,695.76 2646.99,689.71 2645.47,680.64 2642.45,670.06 2639.43,665.52 2636.4,664.01 2633.38,662.49 2627.34,657.96 2625.82,656.44 2619.78,651.91 2618.26,647.37 2615.24,639.81 2610.7,633.77 2607.68,630.74 2601.64,626.21 2600.12,621.67 2598.61,617.13 2598.61,609.57 2598.61,606.55 2600.12,602.01 2607.68,585.39 2609.2,576.31 2610.71,574.8 2612.22,571.78 2615.25,568.76 2618.27,567.24 2621.29,567.24 2625.83,565.73 2639.43,565.73 2646.99,567.24 2650.01,568.76 2656.06,571.78 2669.66,580.85 2672.69,582.36 2674.2,582.36 2681.76,580.85 2712,567.25 2728.62,558.17 2733.16,553.64 2736.18,550.61 2737.7,546.08 2739.21,541.54 2739.21,538.52 2737.7,535.5 2736.18,533.98 2730.14,529.45 2728.62,527.93 2727.11,524.91 2725.59,520.37 2725.59,517.35 2728.62,508.28 2730.13,499.2 2722.57,478.04 2724.09,475.02 2724.09,471.99 2727.11,468.97 2730.13,461.41 2731.65,459.9 2734.67,455.36 2736.18,450.82 2739.2,441.75 2742.23,413.03 2742.23,399.42 2742.23,382.8 2740.71,378.26 2739.2,372.22 2727.1,354.08 2725.59,352.56 2722.57,351.05 2718.03,348.03 2704.43,332.91 2702.91,329.88 2702.91,326.86 2702.91,323.84 2702.91,320.82 2701.4,319.3 2693.84,316.28 2690.81,314.77 2686.28,311.74 2683.26,308.72 2672.67,281.51 2665.12,269.41 2663.6,266.39 2663.6,263.37 2665.12,260.34 2666.63,258.83 2668.14,255.81 2671.17,246.73 2674.19,240.69 2675.7,239.17 2674.19,237.66 2672.67,236.15 2666.63,236.15 2663.61,234.63 2660.58,233.12 2659.07,230.1 2659.07,225.56 2660.58,222.54 2662.1,219.51 2665.12,214.98 2666.64,211.95 2668.15,207.42 2668.15,205.9 2669.66,204.39 2674.2,201.37 "/>
  </g>
  <g id="_2543827450192">
   <circle class="fil4 str5" cx="2827.48" cy="499.97" r="400.35"/>
   <g>
    <line class="fil5 str6" x1="1060.33" y1="1129.58" x2="2604.61" y2= "150.68" />
    <path class="fil0 str7" d="M1107.96 1110.79c38.28,0 69.31,31.03 69.31,69.31 0,38.28 -31.03,69.32 -69.31,69.32 -38.28,0 -69.32,-31.04 -69.32,-69.32 0,-38.28 31.04,-69.31 69.32,-69.31z"/>
    <line class="fil5 str6" x1="1114.95" y1="1249.2" x2="2960.87" y2= "892.23" />
   </g>
  </g>
  <g id="_2543827454848">
   <g>
    <path class="fil6 str8" style="mask:url(#id0)" d="M1163.22 1239.86l1568.81 -303.38c-200.78,-43.5 -351.19,-222.17 -351.19,-435.97 0,-97.79 31.47,-188.24 84.83,-261.76l-1266.56 802.86c0.29,0.85 0.58,1.7 0.87,2.55 0.71,4.28 0.61,7.69 1.35,11.11 0.69,5.13 1.38,10.26 2.09,14.54 0.58,8.54 0.34,16.19 0.07,24.7 0.67,5.98 0.45,12.78 -0.61,19.56 -1.92,6.75 -5.51,12.6 -8.25,18.47 -2.74,5.87 -3.75,10.95 -7.32,15.95 -0.68,1.57 -1.61,3.14 -2.69,4.66 3.02,8.48 4.66,17.62 4.66,27.14 0,23.55 -10.04,44.75 -26.06,59.57z"/>
    <path class="fil6 str8" style="mask:url(#id2)" d="M1203.49 1094.51c0.27,-8.51 0.51,-16.16 -0.07,-24.7 -0.71,-4.28 -1.4,-9.41 -2.09,-14.54 -0.74,-3.42 -0.64,-6.83 -1.35,-11.11 -0.29,-0.85 -0.58,-1.7 -0.87,-2.55l-90.81 57.56c35.22,0.06 65.17,22.57 76.32,53.98 1.08,-1.52 2.01,-3.09 2.69,-4.66 3.57,-5 4.58,-10.08 7.32,-15.95 2.74,-5.87 6.33,-11.72 8.25,-18.47 1.06,-6.78 1.28,-13.58 0.61,-19.56z"/>
   </g>
   <path class="fil6 str8" d="M1184.62 1153.15c-11.15,-31.41 -41.1,-53.92 -76.32,-53.98l-26.16 16.59c7.98,-3.21 16.69,-4.97 25.82,-4.97 32.46,0 59.71,22.31 67.25,52.43 1.15,-0.94 2.25,-1.95 3.22,-3.09 2.2,-2.06 4.4,-4.45 6.19,-6.98z"/>
   <path class="fil6 str8" d="M1178.43 1160.13c-0.97,1.14 -2.07,2.15 -3.22,3.09 1.35,5.41 2.06,11.06 2.06,16.88 0,32.11 -21.83,59.12 -51.45,66.99l37.4 -7.23c16.02,-14.82 26.06,-36.02 26.06,-59.57 0,-9.52 -1.64,-18.66 -4.66,-27.14 -1.79,2.53 -3.99,4.92 -6.19,6.98z"/>
  </g>
 </g>
</svg>
