<?xml version="1.0" encoding="UTF-8"?>
<!DOCTYPE svg PUBLIC "-//W3C//DTD SVG 1.1//EN" "http://www.w3.org/Graphics/SVG/1.1/DTD/svg11.dtd">
<!-- Creator: CorelDRAW 2020 (64 Bit) -->
<svg xmlns="http://www.w3.org/2000/svg" xml:space="preserve" width="1402px" height="1309px" version="1.1" style="shape-rendering:geometricPrecision; text-rendering:geometricPrecision; image-rendering:optimizeQuality; fill-rule:evenodd; clip-rule:evenodd"
viewBox="0 0 1263.37 1180.24"
 xmlns:xlink="http://www.w3.org/1999/xlink"
 xmlns:xodm="http://www.corel.com/coreldraw/odm/2003">
 <defs>
  <style type="text/css">
   <![CDATA[
    .str0 {stroke:#FFA500;stroke-width:11.27;stroke-miterlimit:22.9256}
    .fil0 {fill:none}
   ]]>
  </style>
 </defs>
 <g id="Camada_x0020_1">
  <metadata id="CorelCorpID_0Corel-Layer"/>
  <g id="_2355922034832">
   <polygon class="fil0 str0" points="101.42,512.11 139.54,446.09 177.66,380.06 253.9,380.06 330.15,380.06 368.27,446.09 406.39,512.11 368.27,578.14 330.15,644.17 253.9,644.17 177.66,644.17 139.54,578.14 "/>
   <polygon class="fil0 str0" points="351.7,369.36 389.82,303.33 427.94,237.3 504.19,237.3 580.43,237.3 618.55,303.33 656.67,369.36 618.55,435.39 580.43,501.42 504.19,501.42 427.94,501.42 389.82,435.39 "/>
   <polygon class="fil0 str0" points="598.28,230.32 636.4,164.29 674.52,98.26 750.76,98.26 827.01,98.26 865.13,164.29 903.25,230.32 865.13,296.34 827.01,362.37 750.76,362.37 674.52,362.37 636.4,296.34 "/>
   <polygon class="fil0 str0" points="351.7,654.87 389.82,588.84 427.94,522.81 504.19,522.81 580.43,522.81 618.55,588.84 656.67,654.87 618.55,720.9 580.43,786.93 504.19,786.93 427.94,786.93 389.82,720.9 "/>
   <polygon class="fil0 str0" points="598.28,513.97 636.4,447.94 674.52,381.91 750.76,381.91 827.01,381.91 865.13,447.94 903.25,513.97 865.13,580 827.01,646.03 750.76,646.03 674.52,646.03 636.4,580 "/>
   <polygon class="fil0 str0" points="844.85,656.72 882.97,590.69 921.09,524.66 997.34,524.66 1073.58,524.66 1111.7,590.69 1149.82,656.72 1111.7,722.75 1073.58,788.78 997.34,788.78 921.09,788.78 882.97,722.75 "/>
   <polygon class="fil0 str0" points="598.28,795.77 636.4,729.74 674.52,663.71 750.76,663.71 827.01,663.71 865.13,729.74 903.25,795.77 865.13,861.8 827.01,927.83 750.76,927.83 674.52,927.83 636.4,861.8 "/>
   <polygon class="fil0 str0" points="351.7,936.67 389.82,870.64 427.94,804.61 504.19,804.61 580.43,804.61 618.55,870.64 656.67,936.67 618.55,1002.7 580.43,1068.73 504.19,1068.73 427.94,1068.73 389.82,1002.7 "/>
   <polygon class="fil0 str0" points="844.85,938.52 882.97,872.49 921.09,806.46 997.34,806.46 1073.58,806.46 1111.7,872.49 1149.82,938.52 1111.7,1004.55 1073.58,1070.58 997.34,1070.58 921.09,1070.58 882.97,1004.55 "/>
   <polyline class="fil0 str0" points="92.9,252.1 161.67,371.21 85.43,503.27 0,503.27 "/>
   <polyline class="fil0 str0" points="431.8,1089.16 569.33,1089.16 620.29,1177.42 "/>
   <polyline class="fil0 str0" points="1165.21,637.61 1096.45,518.5 1158.6,410.84 "/>
   <line class="fil0 str0" x1="1167.93" y1="939.58" x2="1263.37" y2= "939.58" />
   <polyline class="fil0 str0" points="914.77,210.18 846,91.07 896.96,2.82 "/>
   <line class="fil0 str0" x1="372.34" y1="138.14" x2="420.06" y2= "220.79" />
  </g>
 </g>
</svg>
